<mxfile host="app.diagrams.net" modified="2024-01-14T17:30:56.463Z" agent="Mozilla/5.0 (Macintosh; Intel Mac OS X 10_15_7) AppleWebKit/537.36 (KHTML, like Gecko) Chrome/119.0.0.0 Safari/537.36" version="22.1.15" etag="bzXcVpE0n66m589_7gv8" type="github">
  <diagram name="Page-1" id="mw_qwYGuKmw0kkUiQNl3">
    <mxGraphModel>
      <root>
        <mxCell id="0" />
        <mxCell id="1" parent="0" />
      </root>
    </mxGraphModel>
  </diagram>
</mxfile>
